<svg width="38" height="39" viewBox="0 0 38 39" fill="none" xmlns="http://www.w3.org/2000/svg">
<path d="M23.3981 18.3564L9.83739 8.90827C8.76052 8.17709 7.87755 8.71354 7.87755 10.1014L7.87755 28.4459C7.87755 29.83 8.76052 30.3664 9.83739 29.6391L23.3981 20.1872C23.3981 20.1872 23.9234 19.8073 23.9234 19.2746C23.9234 18.7401 23.3981 18.3564 23.3981 18.3564ZM26.7041 7.81818H28.5867C29.6278 7.81818 30.4694 7.90981 30.4694 8.96363L30.4694 29.5818C30.4694 30.6356 29.6278 30.7273 28.5867 30.7273H26.7041C25.663 30.7273 24.8214 30.6356 24.8214 29.5818L24.8214 8.96363C24.8214 7.90981 25.663 7.81818 26.7041 7.81818Z" fill="white"/>
</svg>
