<svg width="56" height="56" viewBox="0 0 56 56" fill="none" xmlns="http://www.w3.org/2000/svg">
<ellipse cx="28" cy="28" rx="27.6122" ry="28" fill="white"/>
<path d="M38.4592 12.7273H34.2755C33.1187 12.7273 32.1837 12.832 32.1837 14.0364V41.9637C32.1837 43.168 33.1187 43.2728 34.2755 43.2728H38.4592C39.616 43.2728 40.551 43.168 40.551 41.9637V14.0364C40.551 12.832 39.616 12.7273 38.4592 12.7273ZM21.7245 12.7273H17.5408C16.384 12.7273 15.449 12.832 15.449 14.0364V41.9637C15.449 43.168 16.384 43.2728 17.5408 43.2728H21.7245C22.8813 43.2728 23.8163 43.168 23.8163 41.9637V14.0364C23.8163 12.832 22.8813 12.7273 21.7245 12.7273Z" fill="#252420"/>
</svg>
