<svg width="38" height="39" viewBox="0 0 38 39" fill="none" xmlns="http://www.w3.org/2000/svg">
<path d="M14.6019 20.0376L28.1626 29.4857C29.2395 30.2168 30.1225 29.6804 30.1225 28.2925L30.1225 9.94802C30.1224 8.56393 29.2395 8.02747 28.1626 8.75484L14.6019 18.2067C14.6019 18.2067 14.0766 18.5867 14.0766 19.1193C14.0766 19.6538 14.6019 20.0376 14.6019 20.0376ZM11.2959 30.5757L9.41327 30.5757C8.37216 30.5757 7.53061 30.4841 7.53061 29.4303L7.53061 8.81211C7.53061 7.75829 8.37216 7.66666 9.41327 7.66666L11.2959 7.66666C12.337 7.66666 13.1786 7.75829 13.1786 8.81211L13.1786 29.4303C13.1786 30.4841 12.337 30.5757 11.2959 30.5757Z" fill="white"/>
</svg>
